<?xml version="1.0" encoding="UTF-8" standalone="no"?>
<!-- Created with Inkscape (http://www.inkscape.org/) -->

<svg
   width="799.84924mm"
   height="648.05157mm"
   viewBox="0 0 799.84925 648.05157"
   version="1.1"
   id="svg1"
   inkscape:version="1.3.2 (091e20ef0f, 2023-11-25)"
   sodipodi:docname="inomeado.svg"
   xmlns:inkscape="http://www.inkscape.org/namespaces/inkscape"
   xmlns:sodipodi="http://sodipodi.sourceforge.net/DTD/sodipodi-0.dtd"
   xmlns="http://www.w3.org/2000/svg"
   xmlns:svg="http://www.w3.org/2000/svg">
  <sodipodi:namedview
     id="namedview1"
     pagecolor="#ffffff"
     bordercolor="#000000"
     borderopacity="0.25"
     inkscape:showpageshadow="2"
     inkscape:pageopacity="0.0"
     inkscape:pagecheckerboard="0"
     inkscape:deskcolor="#d1d1d1"
     inkscape:document-units="mm"
     inkscape:zoom="0.702883"
     inkscape:cx="648.75662"
     inkscape:cy="420.41136"
     inkscape:window-width="1920"
     inkscape:window-height="995"
     inkscape:window-x="0"
     inkscape:window-y="0"
     inkscape:window-maximized="1"
     inkscape:current-layer="layer1" />
  <defs
     id="defs1" />
  <g
     inkscape:label="Camada 1"
     inkscape:groupmode="layer"
     id="layer1"
     transform="translate(30.817689,-59.407037)">
    <path
       d="m 448.77784,116.49503 c -11.81574,-0.0118 -23.88492,2.03485 -36.00813,4.52375 -8.9068,32.05545 -10.20782,65.40267 0,100.70393 0.20516,0.0218 0.4118,0.0328 0.61701,0.0543 v 0.90434 h 10.30893 c 28.74047,2.24464 57.88603,1.54353 87.14714,0 h 12.2809 v 0.009 c 19.33198,1.17114 38.64079,2.17315 57.8404,2.38125 v -5.2e-4 c 19.19961,0.20809 38.29053,-0.37772 57.18617,-2.38125 10.20782,-35.30126 8.90679,-68.64849 0,-100.70393 -0.20593,-0.0423 -0.41111,-0.0784 -0.61701,-0.1204 V 121.01 l -4.17959,-1.22835 c -18.82399,-3.63355 -37.42135,-4.89648 -55.10258,0.76377 l -4.00699,1.34152 0.26355,34.68678 -51.58497,0.11317 -46.51085,-0.10181 v -34.6077 h -0.65113 c 0.0158,-0.306 0.0168,-0.65728 0.0341,-0.9586 -8.79029,-3.26011 -17.82694,-4.51457 -27.01696,-4.52375 z m -6.05854,11.70987 c 7.61697,-0.0205 15.31448,1.56338 23.09626,4.81315 v 33.9478 h -48.45389 l 2.74609,-33.9478 c 7.45835,-3.16778 14.99457,-4.79265 22.61154,-4.81315 z m 164.40237,0.11628 c 7.61697,0.0205 15.15317,1.64536 22.61154,4.81314 l 2.74608,33.94832 h -48.4544 v -33.94832 c 7.78178,-3.24977 15.4798,-4.83364 23.09678,-4.81314 z m -191.04002,51.06768 h 49.1541 v 31.30662 h -49.1541 z m 168.52304,0.11627 h 49.15463 v 31.30714 h -49.15463 z"
       style="fill:#010101;stroke:#000000;stroke-width:1.57158"
       id="path1" />
    <path
       id="path7-2"
       style="fill:#000000;fill-opacity:1;stroke:#000000;stroke-width:1;stroke-dasharray:none;stroke-opacity:1"
       d="m 251.5354,131.91167 -0.0155,0.0796 h 18.8004 v 4.98057 h -16.53749 v 13.24726 l -2.89196,0.17204 -2.95678,-0.25111 v -13.24725 h -16.53749 v -4.98109 z m 102.41286,0.006 0.0155,0.0796 h -18.8004 v 4.98057 h 16.53749 v 13.24726 l 2.89196,0.17204 2.95678,-0.25111 v -13.24725 h 16.53749 v -4.98109 z m -122.71501,18.17768 v 58.6543 h 69.82571 v 0.006 h 73.1914 v -58.6543 h -40.10298 v 17.20619 l -29.98731,0.0656 -32.82384,-0.0718 V 150.0957 Z" />
    <path
       style="fill:#000000;fill-opacity:1;stroke-width:0.376425"
       d="M 7.880404,226.99503 C 4.7234169,226.36759 3.1795096,225.88795 0.43049418,224.6806 l -2.12331038,-0.93254 -0.2557436,-2.88435 c -0.1406578,-1.5864 -0.8368479,-8.30489 -1.5470875,-14.92998 -2.5822248,-24.08689 -2.8327217,-27.41959 -3.0556914,-40.654 -0.2286265,-13.5701 0.088916,-20.30936 1.3981456,-29.67302 0.7519379,-5.37787 2.7796252,-15.8061 3.3808564,-17.38746 0.4701408,-1.23656 4.4667619,-5.101 8.0904,-7.82282 6.6354517,-4.98407 13.7905567,-7.28999 21.4562747,-6.91483 7.20703,0.35271 11.546985,1.72782 31.0154,9.82722 8.719772,3.62767 5.934794,3.3283 32.035929,3.44369 12.732613,0.0563 24.568293,0.10233 26.301533,0.10231 4.18764,-7e-5 7.19267,-0.82189 14.9171,-4.07958 11.41773,-4.81529 16.8179,-6.85048 21.24866,-8.0081 3.77762,-0.98698 5.03994,-1.14085 9.61826,-1.17247 4.44568,-0.0307 5.74098,0.0989 8.28137,0.82862 6.07612,1.7453 11.68199,5.17999 16.96988,10.39738 l 3.07035,3.02941 1.15857,5.45817 c 2.80763,13.22716 3.62954,21.84645 3.60742,37.8308 -0.019,13.74908 -0.3429,19.02155 -2.25457,36.70152 -0.52607,4.8653 -1.33792,12.58107 -1.80411,17.14614 -0.4662,4.56507 -0.96641,8.49233 -1.11158,8.72723 -0.43684,0.70682 -5.8723,2.63074 -9.23173,3.26763 -3.93094,0.74525 -8.42555,0.76109 -12.51937,0.0441 -4.39374,-0.76948 -10.49513,-2.90012 -10.49513,-3.66496 0,-0.18281 -0.85988,-2.48475 -1.91085,-5.11543 -2.33073,-5.83406 -6.60926,-14.4574 -9.56365,-19.27546 -1.20604,-1.96683 -2.46314,-4.04071 -2.79356,-4.60863 -0.33042,-0.56792 -0.74725,-0.98492 -0.9263,-0.92666 -0.17905,0.0583 -0.61837,0.87736 -0.97627,1.82022 -2.12214,5.59057 -7.72433,10.00681 -13.90828,10.964 -5.47872,0.84803 -11.39969,-1.24042 -15.2222,-5.36919 -5.03708,-5.44064 -6.336,-12.71096 -3.42076,-19.14671 0.50368,-1.11195 0.91579,-2.08595 0.91579,-2.16445 0,-0.0785 -7.19914,-0.14273 -15.998103,-0.14273 -8.798954,0 -15.998097,0.0555 -15.998097,0.12332 0,0.0678 0.458756,1.21121 1.019458,2.54087 0.897451,2.12823 1.020408,2.91312 1.02738,6.55825 0.0094,4.92717 -0.716476,7.17461 -3.495934,10.82365 -2.94634,3.86812 -7.384339,6.32181 -12.47866,6.8992 -7.231198,0.81959 -15.680217,-4.5978 -18.109293,-11.61143 -0.269933,-0.7794 -0.655632,-1.36215 -0.857102,-1.29499 -0.618577,0.20619 -5.703943,8.9245 -8.644133,14.81944 -1.531993,3.07156 -3.57719,7.61736 -4.544882,10.10177 -0.967696,2.48441 -1.894245,4.76725 -2.059001,5.07299 -0.423982,0.78677 -6.661528,2.92373 -10.475312,3.5888 -3.892412,0.67877 -8.79878,0.66977 -12.282157,-0.0226 z m 61.026026,-25.7513 c 2.758409,-1.20609 5.535396,-4.30173 6.339147,-7.06653 0.776788,-2.67206 0.575805,-7.62694 -0.383738,-9.46048 -1.16287,-2.22205 -3.705678,-4.63758 -6.057085,-5.75389 -1.862693,-0.88431 -2.753381,-1.07164 -5.081749,-1.06886 -3.568483,0.004 -6.148332,1.11794 -8.934675,3.85689 -5.909188,5.80869 -4.003839,15.72176 3.780803,19.67057 1.757614,0.89156 2.276197,0.97613 5.153872,0.84051 2.255208,-0.10629 3.785169,-0.40683 5.183425,-1.01821 z m 61.96866,-0.71173 c 2.27145,-1.00477 4.97613,-3.57368 6.18649,-5.87594 0.8848,-1.683 0.99789,-2.32231 1.00148,-5.6615 0.003,-3.17812 -0.13143,-4.03932 -0.86606,-5.53075 -1.15151,-2.33778 -3.35214,-4.55469 -5.79852,-5.84143 -1.76903,-0.93047 -2.3849,-1.04645 -5.56521,-1.04806 -3.15056,-0.002 -3.82956,0.12269 -5.70682,1.04457 -2.56173,1.25802 -4.57455,3.38948 -5.90089,6.24875 -1.39901,3.01589 -1.39703,7.24217 0.005,10.26437 1.62677,3.50711 4.80033,6.15571 8.49154,7.08688 2.06137,0.52001 6.21605,0.16999 8.15318,-0.68689 z m 38.52481,-31.00154 c 1.85336,-1.2265 3.48661,-4.27566 3.48661,-6.50928 0,-2.24193 -1.63293,-5.28258 -3.50072,-6.51862 -1.32533,-0.87707 -1.90913,-1.0099 -4.43842,-1.0099 -2.62974,0 -3.0675,0.10959 -4.51107,1.12928 -4.74985,3.35513 -4.27557,10.72922 0.85769,13.33544 2.30473,1.17014 5.98553,0.97629 8.10591,-0.42692 z M 28.338974,163.02118 v -6.58745 h 6.587453 6.587453 v -6.02282 -6.02281 h -6.587453 -6.587453 v -6.77567 -6.77566 h -6.022813 -6.022814 v 6.77566 6.77567 H 9.5176827 2.7420185 v 6.02281 6.02282 h 6.7756642 6.7756643 v 6.58745 6.58745 h 6.022814 6.022813 z m 155.239756,-7.23249 c 3.34562,-2.34882 4.36047,-6.96811 2.30242,-10.47992 -2.90089,-4.95 -10.06814,-5.09919 -13.37144,-0.27834 -1.33154,1.94326 -1.50432,5.49656 -0.38018,7.81873 1.44882,2.99286 4.07331,4.41789 7.68494,4.17271 1.68074,-0.11409 2.5985,-0.41475 3.76426,-1.23318 z m -29.9771,0.43886 c 2.85815,-1.19422 4.58124,-3.83812 4.596,-7.05211 0.021,-4.56843 -3.17074,-7.79875 -7.70556,-7.79875 -2.69014,0 -4.18498,0.6429 -5.89101,2.53359 -3.42148,3.79181 -2.29721,9.70675 2.31206,12.16418 1.63586,0.87216 4.79451,0.94445 6.68851,0.15309 z m 14.68061,-14.68061 c 5.60135,-2.34039 6.40083,-10.51465 1.34214,-13.72277 -4.22134,-2.6771 -9.30303,-1.20848 -11.60466,3.35378 -1.01459,2.01111 -0.65242,5.60436 0.76816,7.62122 2.09912,2.98021 6.13947,4.14953 9.49436,2.74777 z"
       id="path8" />
  </g>
</svg>
